PathFileType	4	(X/Y/Z)	D:\TRACE\v60_Jaco2_6-2-23\BothDRS_Motion2_1-platform.trc
DataRate	CameraRate	NumFrames	NumMarkers	Units	OrigDataRate	OrigDataStartFrame	OrigNumFrames
100.00	100.00	      53	5	mm	100.00	1876	      7500
Frame#	Time	Left_Front			Right_Front			Left_Aft			Right_Aft			Post			
		X1	Y1	Z1	X2	Y2	Z2	X3	Y3	Z3	X4	Y4	Z4	X5	Y5	Z5	

1876	18.750	-835.63226	-53.38751	-650.74365	734.30530	-51.57034	-655.94409	-743.45868	49.02034	480.11938	698.94177	50.62599	489.96051	-49.75536	1209.78198	-1106.45593	
1877	18.760	-834.61591	-53.31057	-650.58917	735.08411	-51.47313	-656.01367	-742.85864	49.14795	480.16626	699.70496	50.45663	489.93179	-49.09320	1209.91968	-1106.78040	
1878	18.770	-834.17572	-52.90885	-650.66620	735.90082	-51.23382	-655.91644	-742.19464	49.15677	480.23126	700.10522	50.35794	489.96204	-48.11501	1210.12146	-1106.95581	
1879	18.780	-833.26062	-52.84290	-650.58710	736.73212	-51.20665	-655.84033	-740.96393	48.83308	480.29306	701.22302	50.39531	490.14758	-47.38936	1210.23596	-1106.89233	
1880	18.790	-832.40625	-53.21354	-650.74225	737.66858	-51.20548	-655.89954	-740.33313	48.89255	480.37009	702.29498	50.09820	490.54999	-46.38618	1210.62170	-1107.14453	
1881	18.800	-831.52039	-53.05305	-650.54156	738.85419	-50.90100	-655.64581	-739.55084	48.52482	480.32477	702.52026	49.81896	489.28189	-45.17398	1211.27991	-1106.97461	
1882	18.810	-830.66956	-52.42398	-650.61823	739.54016	-50.52215	-655.88599	-738.51898	48.10981	480.56003	703.47284	49.66508	489.39447	-44.50823	1211.62830	-1106.53821	
1883	18.820	-829.88611	-51.70427	-650.41156	740.07043	-49.98314	-655.74414	-737.51514	47.81060	480.76550	704.40845	49.18915	489.59637	-43.65814	1212.23657	-1106.26038	
1884	18.830	-828.87872	-51.07791	-650.34918	741.12347	-49.05549	-655.49347	-736.77594	47.62559	480.85306	704.96771	48.92395	489.60806	-42.67129	1213.45459	-1105.70581	
1885	18.840	-828.07007	-50.81736	-650.30914	741.80469	-48.70696	-655.64893	-735.71185	47.29800	481.18256	706.23920	48.60063	489.82574	-41.92504	1214.00623	-1105.13611	
1886	18.850	-827.00739	-50.42979	-650.23993	743.00195	-48.42956	-655.52478	-735.24445	47.34010	480.81024	706.78375	48.33036	489.91733	-40.83030	1214.86890	-1104.37122	
1887	18.860	-826.39856	-50.00249	-650.12970	743.75165	-47.83286	-655.39716	-734.44293	46.86683	480.91852	707.74780	47.84954	490.08240	-40.31500	1215.78308	-1103.15735	
1888	18.870	-825.15527	-49.24657	-650.00116	744.87103	-47.26621	-655.30695	-733.42950	46.37526	481.10373	708.84747	47.49456	490.34494	-39.14505	1216.76062	-1101.96179	
1889	18.880	-824.06799	-48.43584	-650.10034	745.70709	-46.75959	-655.36261	-732.40845	46.24200	481.41263	709.72217	47.14217	490.45053	-37.88903	1217.66858	-1100.81079	
1890	18.890	-823.35706	-47.88031	-649.84674	746.87653	-45.91278	-655.09869	-731.45782	45.90202	481.56442	710.76410	46.70393	490.54767	-36.87925	1218.59875	-1099.75183	
1891	18.900	-822.38135	-47.45000	-649.91962	747.53125	-45.41176	-655.13824	-730.33319	45.42336	481.57605	711.87128	46.43317	490.83521	-36.07152	1219.64172	-1097.85266	
1892	18.910	-821.49005	-47.04769	-649.61865	748.59265	-44.80787	-655.11017	-729.55847	44.98549	481.82141	712.43164	45.79847	490.90448	-34.77515	1220.39819	-1096.44287	
1893	18.920	-820.24982	-46.42265	-649.77496	749.90057	-44.22858	-654.93292	-728.63831	44.47858	481.83105	713.61255	45.57557	491.25531	-33.81447	1221.54224	-1094.25842	
1894	18.930	-819.39636	-45.91497	-649.60187	750.63684	-43.76385	-654.86786	-727.35345	44.09698	482.23553	714.68622	45.08868	491.29205	-33.21997	1222.91272	-1092.27954	
1895	18.940	-818.30420	-44.69466	-649.46948	751.66406	-42.96296	-654.58618	-726.52216	43.79936	482.37799	715.39105	44.60529	491.63635	-32.20284	1224.04883	-1090.26025	
1896	18.950	-817.42108	-44.17916	-649.25104	752.85333	-42.10308	-654.59802	-725.30988	43.29521	482.63907	716.96222	44.05309	491.69077	-31.04870	1225.14844	-1088.20154	
1897	18.960	-816.18176	-43.38583	-649.34686	753.61731	-41.42199	-654.72498	-724.32831	42.80600	482.80725	717.63934	43.42919	491.81622	-30.08830	1226.88074	-1086.07764	
1898	18.970	-815.33594	-42.61755	-649.25568	754.63721	-40.50732	-654.38879	-723.58612	42.13605	482.97836	718.84076	42.92436	492.13422	-29.05029	1227.90906	-1083.81995	
1899	18.980	-814.40631	-41.87994	-649.16681	755.62433	-39.96371	-654.35718	-722.36780	41.32531	483.21127	719.66766	42.31711	492.34006	-28.18634	1229.40527	-1081.19885	
1900	18.990	-813.17981	-40.61023	-648.86359	756.70386	-38.75629	-654.24127	-721.46564	40.85115	483.42963	720.96735	41.71845	492.63593	-27.05748	1231.09070	-1078.74268	
1901	19.000	-811.98944	-39.72044	-648.69373	757.65106	-37.73383	-654.06671	-720.28778	40.14363	483.83511	722.08636	41.01978	492.86661	-26.33677	1232.88867	-1076.37500	
1902	19.010	-810.85931	-38.69325	-648.41211	759.06781	-36.91671	-653.76532	-719.09814	39.62793	484.18326	723.00201	40.30320	493.11215	-24.63173	1234.42041	-1073.88257	
1903	19.020	-809.93622	-37.66845	-648.47089	760.08795	-35.73613	-653.71680	-718.04852	39.00154	484.10193	724.40863	39.65591	493.61261	-23.71986	1236.37500	-1071.13135	
1904	19.030	-808.92206	-36.71371	-648.22577	760.97369	-34.73180	-653.51227	-716.83124	38.08090	484.75851	724.99048	38.67951	493.73563	-22.66713	1237.88110	-1068.35791	
1905	19.040	-807.67023	-35.63125	-648.09705	762.03485	-33.60614	-653.28094	-715.71613	37.19478	484.97968	726.33038	38.03643	494.14178	-21.82260	1239.81714	-1065.51807	
1906	19.050	-806.53082	-34.49314	-647.70288	763.11444	-32.54572	-653.20514	-714.57172	36.29325	485.26312	727.41443	37.45477	494.98108	-20.74586	1241.75952	-1062.40576	
1907	19.060	-805.56537	-33.12589	-647.78882	764.38293	-31.43217	-652.84198	-712.78497	34.78693	485.92084	727.96283	36.42463	495.43414	-19.40541	1243.65320	-1059.52209	
1908	19.070	-804.44580	-32.06019	-647.35883	765.30829	-30.25954	-652.73920	-713.23621	36.01424	485.95578	729.55560	35.53776	495.30338	-18.17994	1245.58386	-1056.58179	
1909	19.080	-802.98254	-31.28271	-647.25677	766.45880	-29.06119	-652.64569	-711.61945	34.62277	486.10852	730.49908	34.83540	495.60370	-17.06242	1247.36365	-1053.32874	
1910	19.090	-801.74390	-30.03814	-646.98126	767.56616	-27.88358	-652.49866	-710.40723	33.58231	486.45645	731.61914	33.87827	495.84583	-16.30853	1249.33679	-1050.11011	
1911	19.100	-801.16895	-28.29208	-646.86926	768.64081	-26.66254	-652.23328	-709.32733	32.57701	486.66156	732.44354	33.00350	496.06940	-15.17918	1251.18506	-1046.63770	
1912	19.110	-800.19836	-27.19379	-646.51770	769.79248	-25.57425	-651.83008	-708.05469	31.73545	487.08014	733.88422	32.33390	496.42627	-14.07275	1253.10803	-1043.19971	
1913	19.120	-798.64398	-26.19725	-646.29578	771.04736	-24.50193	-651.82910	-706.90808	31.03655	487.38696	734.95746	31.67083	496.82220	-13.16329	1255.21863	-1039.79480	
1914	19.130	-797.29657	-24.30366	-646.15948	772.22412	-23.13551	-651.48962	-705.66156	30.13507	487.83276	736.56500	30.63976	497.17743	-11.65587	1257.23608	-1036.48950	
1915	19.140	-796.50134	-23.28462	-645.72076	773.41003	-21.53462	-651.02600	-704.60864	29.30413	488.16220	737.59692	29.69910	497.58148	-10.56432	1259.40735	-1032.45093	
1916	19.150	-795.36444	-22.02114	-645.69061	774.64777	-20.45970	-651.03656	-703.48737	28.32824	488.57199	738.74280	28.86941	497.98944	-9.62467	1261.51172	-1028.82349	
1917	19.160	-794.04865	-20.38808	-645.53082	775.58429	-18.94801	-650.57312	-702.14624	27.23639	488.90704	739.75110	27.88095	498.46002	-8.47561	1263.88452	-1025.14478	
1918	19.170	-792.98242	-18.91181	-645.09039	776.62067	-17.56415	-650.29321	-701.19501	26.57251	489.43402	740.98621	26.88840	498.72064	-7.84997	1266.04675	-1021.31244	
1919	19.180	-791.96149	-17.62458	-644.54657	777.84369	-16.31819	-650.15924	-700.02045	25.50017	489.72327	742.25500	25.93497	499.01389	-6.57302	1268.15405	-1017.58118	
1920	19.190	-791.24652	-16.00555	-644.69446	778.70593	-14.92879	-649.92847	-698.94995	24.74495	489.91183	743.22528	24.79348	499.33575	-4.93340	1270.36597	-1013.99200	
1921	19.200	-789.66150	-15.00950	-644.26105	780.34412	-13.14425	-649.39825	-697.67456	23.49345	490.29700	744.56787	23.95270	499.76242	-3.79036	1272.57471	-1011.10297	
1922	19.210	-788.49408	-13.44242	-644.03754	781.52795	-11.88865	-649.07654	-696.45526	22.55405	490.68369	745.42059	22.83982	500.17078	-3.26920	1274.91357	-1008.45947	
1923	19.220	-787.32526	-11.86900	-643.85358	782.55402	-10.30633	-649.04022	-695.15179	21.44002	491.04834	746.67023	21.88176	500.62759	-1.74259	1276.92090	-1005.83154	
1924	19.230	-786.51788	-10.34626	-643.34656	783.83636	-8.91392	-648.50452	-693.92389	20.43893	491.37695	747.65955	20.90226	500.95996	-0.55895	1279.16125	-1003.31140	
1925	19.240	-785.15265	-8.97728	-643.21857	784.73120	-7.54417	-648.28601	-693.24762	19.84069	491.81482	748.71704	19.92308	501.23169	0.79924	1281.24329	-1001.25909	
1926	19.250	-784.06830	-7.59897	-642.75092	786.08130	-5.99716	-647.98474	-692.82001	19.28913	492.43884	749.99152	18.87024	501.60556	2.03441	1283.69165	-998.98499	
1927	19.260	-783.00903	-6.15824	-642.36139	787.15601	-4.57009	-647.61523	-691.57806	18.05929	492.74634	751.34814	17.78572	501.91019	2.99812	1285.93005	-996.42725	
1928	19.270	-781.90656	-4.22434	-642.27911	788.09357	-3.07891	-647.28223	-690.47858	17.21613	493.03995	752.44348	16.67481	502.34158	3.95573	1288.19153	-993.89600	
